<?xml version="1.0" encoding="utf-8"?>
<!-- Generator: Adobe Illustrator 12.0.0, SVG Export Plug-In . SVG Version: 6.00 Build 51448)  -->
<!DOCTYPE svg PUBLIC "-//W3C//DTD SVG 1.1//EN" "http://www.w3.org/Graphics/SVG/1.1/DTD/svg11.dtd" [
	<!ENTITY ns_svg "http://www.w3.org/2000/svg">
	<!ENTITY ns_xlink "http://www.w3.org/1999/xlink">
]>
<svg  version="1.1" id="Layer_1" xmlns="&ns_svg;" xmlns:xlink="&ns_xlink;" width="8106.531" height="488"
	 viewBox="-0.053 -304.238 8106.531 488" overflow="visible" enable-background="new -0.053 -304.238 8106.531 488"
	 xml:space="preserve">
<g id="XMLID_12_">
	<g>
		<path fill="#44C7F5" d="M2042.417,90.463c0,32.801-0.5,61.6-0.5,94.398c-680.64,0-1361.279,0-2041.92,0
			c0-28.479,0-56.959,0-85.438c15.09-10.409,32.55-14.34,50.4-14.399c18.359-0.061,36.359,5.85,54.239,11.039
			c18.66,5.41,37.141,6.92,55.681,0.961c17.05-5.48,34.13-12.891,53.28-12c12.47,0.58,23.71,6.069,35.039,10.08
			c22.79,8.061,49.721,14.359,77.28,7.199c12.03-3.119,23.79-7.68,36.96-8.64c26.68-1.94,52.85,5.76,75.36,10.08
			c8.35,1.6,17.68,3.868,25.439,3.358c11.601-0.76,22.141-6.539,32.16-10.56c10.25-4.11,21.629-8.05,34.56-8.16
			c24.511-0.21,45.2,12.11,66.721,16.8c7.68,1.67,15.87,3.7,24,3.84c15.09,0.25,30.021-2.938,44.16-7.199
			c13.409-4.029,25.659-10.91,38.88-12.959c42.45-6.57,76.76,18.119,119.04,18.24c18.13,0.049,36.84-4.101,50.88-10.561
			c16.04-7.38,31.359-15.021,47.04-14.4c14.05,0.561,23.489,8.03,36,11.521c12.35,3.439,26.39,5.648,41.76,4.318
			c5.5-0.469,10.971-2.6,16.32-4.318c16.16-5.189,34.729-9.291,53.76-7.68c23.229,1.97,45.95,13.77,68.16,15.359
			c32.55,2.33,50.8-14.92,80.16-15.84c12.6-0.39,20.188,2.38,29.279,5.76c19.381,7.19,38.359,15.34,63.84,14.881
			c21.881-0.399,43-11.521,65.761-12.479c25.149-1.062,50.069,5.729,72,10.08c8.2,1.63,16.96,4.358,24,3.84
			c10.989-0.812,22.12-6.74,32.64-11.04c11.19-4.57,23.17-7.72,35.521-7.68c16.76,0.05,29.6,5.949,44.16,10.56
			c14.43,4.57,29.068,9.22,45.119,9.601c14.989,0.351,29.359-2.711,42.721-6.24c12.66-3.35,24.63-10.35,37.438-12.959
			c42.11-8.57,75.5,14.859,118.08,17.279c19.551,1.11,38.79-3.34,54.721-10.08c16.29-6.89,32.59-16.039,50.399-14.399
			c14.729,1.351,25.53,9.94,38.4,12.96c10.6,2.479,23.329,4.29,36.479,2.88C2021.277,97.022,2031.357,93.512,2042.417,90.463z"/>
		<path fill="#FFFFFF" d="M-0.003,184.862c680.641,0,1361.28,0,2041.92,0C1362.396,185.663,679.518,185.663-0.003,184.862z"/>
	</g>
</g>
<rect y="0" fill="none" width="1032.895" height="184.525"/>
<rect x="1677.947" y="135.762" fill="none" width="612" height="792"/>
<polygon fill="none" points="-0.053,-58.238 2042.447,-54.238 2042.447,188.762 -0.053,184.762 "/>
<rect x="2018" y="0" fill="none" width="1032.895" height="184.525"/>
<line fill="none" x1="2022.447" y1="364.762" x2="2022.447" y2="-427.238"/>
<line fill="none" x1="2633.947" y1="-431.238" x2="2633.947" y2="360.762"/>
<polyline fill="none" points="4059.947,-58.238 4059.947,184.762 2017.947,184.762 2017.947,-58.238 "/>
<rect x="-0.053" y="-58.238" fill="none" width="4059" height="240"/>
<rect x="1784.497" y="-148.901" fill="none" width="612" height="792"/>
<g id="XMLID_2_">
	<g>
		<path fill="#44C7F5" d="M4067.531,90.179c0,32.801-1.25,61.855-1.25,94.654c-680.64,0-1361.279,0-2041.92,0
			c0-28.479,0-56.959,0-85.438c15.09-10.409,32.55-14.34,50.4-14.399c18.359-0.061,36.359,5.85,54.239,11.039
			c18.66,5.41,37.141,6.92,55.681,0.961c17.05-5.48,34.13-12.891,53.28-12c12.47,0.58,23.71,6.069,35.039,10.08
			c22.79,8.061,49.721,14.359,77.28,7.199c12.03-3.119,23.79-7.68,36.96-8.64c26.68-1.94,52.85,5.76,75.36,10.08
			c8.35,1.6,17.68,3.868,25.439,3.358c11.601-0.76,22.141-6.539,32.16-10.56c10.25-4.11,21.629-8.05,34.56-8.16
			c24.511-0.21,45.2,12.11,66.721,16.8c7.68,1.67,15.87,3.7,24,3.84c15.09,0.25,30.021-2.938,44.16-7.199
			c13.409-4.029,25.659-10.91,38.88-12.959c42.45-6.57,76.76,18.119,119.04,18.24c18.13,0.049,36.84-4.101,50.88-10.561
			c16.04-7.38,31.359-15.021,47.04-14.4c14.05,0.561,23.489,8.03,36,11.521c12.35,3.439,26.39,5.648,41.76,4.318
			c5.5-0.469,10.971-2.6,16.32-4.318c16.16-5.189,34.729-9.291,53.76-7.68c23.229,1.97,45.95,13.77,68.16,15.359
			c32.55,2.33,50.8-14.92,80.16-15.84c12.6-0.39,20.188,2.38,29.279,5.76c19.381,7.19,38.359,15.34,63.84,14.881
			c21.881-0.399,43-11.521,65.761-12.479c25.149-1.062,50.069,5.729,72,10.08c8.2,1.63,16.96,4.358,24,3.84
			c10.989-0.812,22.12-6.74,32.64-11.04c11.19-4.57,23.17-7.72,35.521-7.68c16.76,0.05,29.6,5.949,44.16,10.56
			c14.43,4.57,29.068,9.22,45.119,9.601c14.989,0.351,29.359-2.711,42.721-6.24c12.66-3.35,24.63-10.35,37.438-12.959
			c42.11-8.57,75.5,14.859,118.08,17.279c19.551,1.11,38.79-3.34,54.721-10.08c16.29-6.89,32.59-16.039,50.399-14.399
			c14.729,1.351,25.53,9.94,38.4,12.96c10.6,2.479,23.329,4.29,36.479,2.88C4045.642,96.993,4056.472,93.228,4067.531,90.179z"/>
		<path fill="#FFFFFF" d="M2024.361,184.833c680.641,0,1361.28,0,2041.92,0C3386.761,185.635,2703.882,185.635,2024.361,184.833z"/>
	</g>
</g>
<polygon fill="none" points="2024.864,3.972 3057.259,-0.028 3057.259,184.497 2024.864,188.497 "/>
<rect x="3702.312" y="135.734" fill="none" width="612" height="792"/>
<polygon fill="none" points="2024.812,-54.266 4067.562,-54.522 4067.562,188.478 2024.812,188.734 "/>
<rect x="4042.364" y="-0.028" fill="none" width="1032.895" height="184.525"/>
<line fill="none" x1="4046.312" y1="360.734" x2="4046.312" y2="-431.266"/>
<polyline fill="none" points="6084.312,-58.266 6084.312,184.734 4042.312,184.734 4042.312,-58.266 "/>
<polygon fill="none" points="2024.812,-54.266 6083.312,-58.266 6083.312,181.734 2024.812,185.734 "/>
<rect x="3808.861" y="-148.929" fill="none" width="611.999" height="792"/>
<g id="XMLID_5_">
	<g>
		<path fill="#44C7F5" d="M6091.17,90.561c0,32.801-0.5,61.6-0.5,94.398c-680.641,0-1361.279,0-2041.92,0
			c0-28.479,0-56.959,0-85.438c15.09-10.41,32.549-14.34,50.4-14.4c18.359-0.061,36.359,5.85,54.238,11.039
			c18.66,5.41,37.141,6.92,55.682,0.961c17.049-5.48,34.129-12.891,53.279-12c12.471,0.58,23.711,6.07,35.039,10.08
			c22.791,8.061,49.721,14.359,77.281,7.199c12.029-3.119,23.789-7.68,36.959-8.639c26.68-1.941,52.85,5.76,75.361,10.08
			c8.35,1.6,17.68,3.867,25.439,3.357c11.6-0.76,22.141-6.539,32.16-10.559c10.25-4.111,21.629-8.051,34.559-8.16
			c24.512-0.211,45.201,12.109,66.721,16.799c7.68,1.67,15.871,3.701,24,3.84c15.09,0.25,30.021-2.938,44.16-7.199
			c13.41-4.029,25.66-10.91,38.881-12.959c42.449-6.57,76.76,18.119,119.039,18.24c18.131,0.049,36.84-4.1,50.881-10.561
			c16.039-7.379,31.359-15.021,47.039-14.4c14.051,0.561,23.49,8.031,36,11.521c12.35,3.439,26.391,5.648,41.76,4.318
			c5.5-0.469,10.971-2.6,16.32-4.318c16.16-5.189,34.73-9.291,53.76-7.68c23.23,1.971,45.951,13.77,68.16,15.359
			c32.551,2.33,50.801-14.92,80.16-15.84c12.6-0.389,20.189,2.381,29.279,5.76c19.381,7.191,38.359,15.34,63.84,14.881
			c21.881-0.398,43-11.52,65.762-12.479c25.148-1.063,50.068,5.729,72,10.08c8.199,1.629,16.959,4.357,24,3.84
			c10.988-0.813,22.119-6.74,32.639-11.041c11.191-4.57,23.17-7.719,35.521-7.68c16.76,0.051,29.6,5.949,44.16,10.561
			c14.43,4.57,29.068,9.219,45.119,9.6c14.99,0.352,29.359-2.711,42.721-6.24c12.66-3.35,24.631-10.35,37.439-12.959
			c42.109-8.57,75.5,14.859,118.08,17.279c19.551,1.111,38.789-3.34,54.721-10.08c16.289-6.889,32.59-16.039,50.398-14.398
			c14.73,1.35,25.531,9.939,38.4,12.959c10.6,2.479,23.33,4.291,36.479,2.881C6070.029,97.119,6080.109,93.61,6091.17,90.561z"/>
		<path fill="#FFFFFF" d="M4048.75,184.959c680.641,0,1361.279,0,2041.92,0C5411.148,185.762,4728.27,185.762,4048.75,184.959z"/>
	</g>
</g>
<rect x="4048.752" y="0.098" fill="none" width="1032.895" height="184.525"/>
<rect x="5726.699" y="135.86" fill="none" width="612" height="792"/>
<polygon fill="none" points="4048.699,-58.14 6091.199,-54.14 6091.199,188.86 4048.699,184.86 "/>
<rect x="6066.752" y="0.098" fill="none" width="1032.895" height="184.525"/>
<line fill="none" x1="6071.199" y1="364.86" x2="6071.199" y2="-427.14"/>
<line fill="none" x1="6682.699" y1="-431.14" x2="6682.699" y2="360.86"/>
<polyline fill="none" points="8108.699,-58.14 8108.699,184.86 6066.699,184.86 6066.699,-58.14 "/>
<rect x="4048.699" y="-58.14" fill="none" width="4059" height="240"/>
<rect x="5833.248" y="-148.803" fill="none" width="612" height="792"/>
<g id="XMLID_4_">
	<g>
		<path fill="#44C7F5" d="M8115.033,86.533c0,32.801,0,65.6,0,98.398c-680.639,0-1361.279,0-2041.92,0c0-28.479,0-56.959,0-85.439
			c15.09-10.408,32.551-14.34,50.4-14.398c18.359-0.061,36.359,5.85,54.24,11.039c18.66,5.41,37.141,6.92,55.68,0.961
			c17.051-5.48,34.131-12.891,53.281-12c12.469,0.58,23.709,6.068,35.039,10.08c22.789,8.061,49.721,14.359,77.279,7.199
			c12.031-3.119,23.791-7.68,36.961-8.641c26.68-1.939,52.85,5.76,75.359,10.08c8.35,1.6,17.68,3.869,25.439,3.359
			c11.602-0.76,22.141-6.539,32.16-10.561c10.25-4.109,21.629-8.049,34.561-8.16c24.51-0.209,45.199,12.111,66.721,16.801
			c7.68,1.67,15.869,3.699,24,3.84c15.09,0.25,30.02-2.939,44.16-7.199c13.408-4.029,25.658-10.91,38.879-12.959
			c42.451-6.57,76.76,18.119,119.041,18.24c18.129,0.049,36.84-4.102,50.879-10.561c16.041-7.381,31.359-15.021,47.041-14.4
			c14.049,0.561,23.488,8.029,36,11.521c12.35,3.439,26.389,5.648,41.76,4.318c5.5-0.469,10.971-2.6,16.32-4.318
			c16.16-5.189,34.729-9.291,53.76-7.68c23.229,1.969,45.949,13.77,68.16,15.359c32.549,2.33,50.799-14.92,80.16-15.84
			c12.6-0.391,20.188,2.379,29.279,5.76c19.381,7.189,38.359,15.34,63.84,14.881c21.881-0.4,43-11.521,65.76-12.48
			c25.15-1.061,50.07,5.73,72,10.08c8.201,1.631,16.961,4.359,24,3.84c10.99-0.811,22.121-6.74,32.641-11.039
			c11.189-4.57,23.17-7.721,35.521-7.68c16.76,0.049,29.6,5.949,44.16,10.559c14.43,4.57,29.068,9.221,45.119,9.602
			c14.988,0.35,29.359-2.711,42.721-6.24c12.66-3.35,24.629-10.35,37.438-12.959c42.111-8.57,75.5,14.859,118.08,17.279
			c19.551,1.109,38.791-3.34,54.721-10.08c16.291-6.891,32.59-16.039,50.4-14.4c14.729,1.352,25.529,9.941,38.4,12.961
			c10.6,2.479,23.328,4.289,36.479,2.879C8094.395,97.092,8103.975,89.582,8115.033,86.533z"/>
		<path fill="#FFFFFF" d="M6073.113,184.932c680.641,0,1361.281,0,2041.92,0C7435.514,185.733,6752.635,185.733,6073.113,184.932z"
			/>
	</g>
</g>
<polygon fill="none" points="6073.617,4.071 7106.012,0.071 7106.012,184.596 6073.617,188.596 "/>
<rect x="7751.064" y="135.832" fill="none" width="612" height="792"/>
<polygon fill="none" points="6073.564,-54.168 8115.064,-58.168 8115.064,184.832 6073.564,188.832 "/>
<rect x="8091.117" y="0.071" fill="none" width="1032.895" height="184.525"/>
<line fill="none" x1="8095.064" y1="360.832" x2="8095.064" y2="-431.168"/>
<polyline fill="none" points="10133.064,-58.168 10133.064,184.832 8091.064,184.832 8091.064,-58.168 "/>
<polygon fill="none" points="6073.564,-54.168 10132.064,-58.168 10132.064,181.832 6073.564,185.832 "/>
<rect x="7857.613" y="-148.831" fill="none" width="612" height="792"/>
</svg>
