<?xml version="1.0" encoding="utf-8"?>
<!-- Generator: Adobe Illustrator 12.0.0, SVG Export Plug-In . SVG Version: 6.00 Build 51448)  -->
<!DOCTYPE svg PUBLIC "-//W3C//DTD SVG 1.1//EN" "http://www.w3.org/Graphics/SVG/1.1/DTD/svg11.dtd" [
	<!ENTITY ns_svg "http://www.w3.org/2000/svg">
	<!ENTITY ns_xlink "http://www.w3.org/1999/xlink">
]>
<svg  version="1.1" id="Layer_1" xmlns="&ns_svg;" xmlns:xlink="&ns_xlink;" width="2485" height="564" viewBox="0 0 2485 564"
	 overflow="visible" enable-background="new 0 0 2485 564" xml:space="preserve">
<g transform="translate(0.000000,564.000000) scale(0.100000,-0.100000)">
	<g id="XMLID_2_">
		<g>
			<path fill="#AFAFAF" d="M9799.999,2245v85h145h145v-75v-75h40h40v-770V640h55h55v545v545h300h300v-405V920h80h80v600v600h125h125
				v-55v-55h145h145v-540V930h50h50v765v765h175h175v100v100h165h165v-95v-95h35h35v-890V690h50h50v405v405h310h310v-125v-125h45h45
				v385v385h290h290v-795.996v-795l47.998,2.998l47.002,2.998l2.998,632.002l2.002,632.998h335h334.999v-420V860h60h60v485v485h115
				h115v95v95h150h150v-80v-80h45h45v-475V910h30h30v980v780h240h240v-490v-690h100h100v125v125h250h250v-600V540h70h70v665v665h280
				l280-110v-410V830h100h100v1115v425h135h135v200v200h140h140v-200v-200h35h35v-655v-485h40h40v380v270l310,110h310v-620V750h85
				h85v75v75h340h340v480v480h320h320v-470V920h145h145v65v65h160h160v-60v-60h85h85V805V680h70h70v265v265h305h305v465v545
				l177.998,2.002l177.002,2.998l2.998,107.998l2.998,107.002h64.004h65v75v75h90h90v-175v-175h40h40v-700V920h100h100v75v75h90h90
				v470v860h275h275v-35c0-27.998,4.004-35,20-35c20,0,20-7.002,20-1055V610h265h265v452.002v452.002l67.002,67.998l67.002,67.998
				h215.996h215l77.002-77.002l77.998-77.998v-432.002V630h35h35V315V0H12424.999H0v1435v1045h240h240v-690v-300h100h100v125v125
				h250h250v-600V540h70h70v665v665h280h280v-520V830h100h100v1225v505h135h135v200v200h140h140v-200v-200h35h35v-885v-445h40h40
				v380v380h310h310v-620V750h85h85v75v75h340h340v480v480h320h320v-470V920h145h145v65v65h160h160v-60v-60h85h85V695V460h70h70v375
				v375h305h305v215v545l177.998,2.002L6775,1975l2.998,107.998L6781,2190h63.999h65v75v75h90h90v-175v-175h40h40v-700V920h100h100
				v75v75h90h90v860v140h295h295v-370V610h265h265v452.002v452.002l67.002,67.998l66.997,67.998h216.001h215l77.002-77.002
				l77.998-77.998v-432.002V630h50h50v765v765h155h155V2245z"/>
		</g>
		<g>
		</g>
	</g>
</g>
</svg>
