<?xml version="1.0" encoding="utf-8"?>
<!-- Generator: Adobe Illustrator 12.0.0, SVG Export Plug-In . SVG Version: 6.00 Build 51448)  -->
<!DOCTYPE svg PUBLIC "-//W3C//DTD SVG 1.1//EN" "http://www.w3.org/Graphics/SVG/1.1/DTD/svg11.dtd" [
	<!ENTITY ns_svg "http://www.w3.org/2000/svg">
	<!ENTITY ns_xlink "http://www.w3.org/1999/xlink">
]>
<svg  version="1.1" id="Layer_1" xmlns="&ns_svg;" xmlns:xlink="&ns_xlink;" width="2475.555" height="894.494"
	 viewBox="218.461 -167.991 2475.555 894.494" overflow="visible" enable-background="new 218.461 -167.991 2475.555 894.494"
	 xml:space="preserve">
<g transform="translate(0.000000,779.000000) scale(0.100000,-0.100000)">
	<g id="XMLID_3_">
		<g>
			<path fill="#3F3F3F" d="M23584.051,3142.429l62.402-0.938l22.92-0.83l24.678,0.107c0.938,3.125-4.072-162.734-4.072,211.27
				v677.998h30h30v90v90h30h30v80c0,44.004,4.004,80,9.004,80s12.002-35.996,15.996-80c6.006-69.004,10-80,26.006-80
				c15,0,18.994,6.992,18.994,40c0,21.992,5,40,10,40c6.006,0,10-18.008,10-40v-40h60h60v-95v-95h145h145v-690v-560h45l-7.598-7.598
				v490v490l172.598,7.598h120v50v50h100h100v-545l64.902-147.598l5.098-397.402l42.402,7.402v370v370h70h96.67l0.928,47.598v55h110
				h110v-55v-55l96.572,1.572h65l0.83-519.17l-1.348-296.348l19.473,21.348l50.625,115l-1.152,302.598v695h30h30v70
				c0,62.988,2.002,70,20,70c19.004,0,20,6.992,20,130c0,80,4.004,130,10,130c6.006,0,11.006-52.012,12.002-132.012l2.002-132.988
				l2.998,112.988c2.002,63.008,7.998,112.012,12.998,112.012c6.006,0,11.006-48.008,12.002-112.012c2.002-101.992,2.002-105,5-30
				c5,106.016,22.998,108.008,22.998,2.012v-80h60h60v-80v-80h130h130v-610l2.402-272.598l31.67-0.01l-1.67,92.51h47.5
				l1.104,285.098l58.994,62.998l59.004,62.002h190h188.994l51.006-57.002l50.996-57.998v-412.002v-412.998h90h90v-165v-165
				H14564.979H2139.981v1050v750h45c38.003,0,45,2.988,45,20c0,26.992,28.003,25,33.003-2.012c1.997-12.988,5,3.008,6.001,35
				c0.996,50,2.998,57.012,20.996,57.012c18.003,0,20-7.012,20-55v-55h140h140v-410v-710h75l79.053-4.268v-65l-1.665,431.66h85h85
				l-2.388,87.607v460h30h30v145v145h75h75v-65v-65h55h55v-85v-85h140h140v-455v-335h250h250v-265l0.737-69.268h33.33l26.67-3.34
				l-0.737-42.393v150h70h70v50v50h130h130v-55v-55h120h120v390v280h140h140v135v135h80h80v-135v-135h40h40v-285v-395h45h45v220v220
				h160h160v-220v-220h70l67.388-0.938v-65l2.612,352.598h70h70v515v-31.66h40h40v55c0,54.004,0,55,30,55h30v75v75h50h50v120
				c0,100,3.008,120,15,120c13.008,0,15-20,15-120v-120h50h50v-75v-75h30c30,0,30-0.996,30-55v-55h40h40v-185v-315h35h35v700v520h25
				h25v170v170h30h30v115c0,95.996,3.008,115,15,115c12.002,0,15-19.004,15-115v-115h65h65v-165v-165h115h115v-690l0.723-437.607
				l84.277-2.393h85v430v1.006l101.006,126.992c55.996,70,107.002,133.008,112.998,140c9.004,9.004,37.002-17.998,124.004-127.998
				l111.992-140v-240v-240h60h60v185v185h205h205v-105v-105h80h80v500v570h205h205v-645c0-628.994,2.002-715,15-715
				c10.996,0,15,12.002,15,50v50h50h50v90v90h40h40v190v190h50h50v424.004v542.989l40,7.012
				c23.008,2.988,43.008,12.988,45.996,20.996c5,11.992,30,15,134.003,15c92.002,0,129.004-3.008,132.002-12.012
				c2.998-6.992,23.994-16.992,48.994-22.988l44.004-10.996l2.998-642.012l2.002-521.992h35h35v-90c0-72.998,2.998-90,15-90
				c12.998,0,15,24.004,15,155v155h75h75v380v380h75h75v65c0,62.988,0.996,65,25,65s25-2.012,25-65c0-58.008,2.002-65,20-65
				c10.996,0,20,6.992,20,15c0,11.992,12.998,15,55,15s55-3.008,55-15c0-10.996,10.996-15,40-15h40v-315v-315h60h60v90
				c0,52.998,4.004,90,10,90s10,17.998,10,40c0,29.004,4.004,40,15,40s15-10.996,15-40c0-35.996,2.998-40,25-40
				c15.996,0,25,6.006,25,15c0,9.004,9.004,15,25,15s25-5.996,25-15c0-8.994,9.004-15,25-15h25v-220v-220h25h25v-155v-155h25h25v400
				v400h100h100v190v190h122.998c119.004,0,124.004-0.996,147.002-25c14.004-15,35-25,52.002-25h27.998v-140
				c0-133.008,0.996-140,20-140c20,0,20-7.012,20-370v-370h35h35v180v180h45h45v70v70h165h165v-310c0-268.994,2.002-310,15-310
				s15,20,15,120v120h29.004c23.994,0,38.994,12.002,80.996,62.998c185,224.004,462.998,361.006,807.998,398.008
				c177.998,18.994,390-5,566.006-63.008c97.998-31.992,268.994-115,303.994-147.998c11.006-10.996,25-20,30-20
				c12.998,0,165-152.002,192.002-192.002c19.004-27.998,32.002-37.998,52.998-37.998c24.004,0,27.002,2.998,27.002,35
				c0,24.004,5,35,15,35c12.998,0,15,20,15,122.998c0,67.002,4.004,237.002,10,377.002
				c9.004,254.004,24.004,712.989,35.996,1137.988c7.002,240.01,9.004,229.009-41.992,223.008c-5,0-18.008,15-27.002,35
				c-12.002,23.999-22.002,33.999-32.002,30c-10.996-3.999-15,2.002-15,18.999c0,13.003-4.004,27.002-10,30
				c-5,3.003-10,31.001-10,61.001v53.999h35c24.004,0,35,5,35,15s10,15,27.998,15h29.004l12.998,326.001
				c12.002,303.003,12.002,327.002-2.998,336.001c-20,11.001-22.998,47.998-2.998,47.998c13.994,0,18.994,68.003,35.996,520
				c5,129.004,9.004,237.002,10,239.004c0,1.997,2.998,1.997,5.996-1.001c3.008-3.003,9.004-115,14.004-248.999
				c15.996-433.003,20.996-509.004,35.996-509.004c19.004,0,18.008-38.999-0.996-45.996c-19.004-8.003-19.004-52.002-2.998-401.001
				c12.002-261.001,12.002-263.003,33.994-263.003c12.002,0,24.004-6.997,28.008-15c2.998-8.999,17.998-15,35.996-15
				c29.004,0,30-0.996,30-48.999c0-71.001-10-108.999-30-113.999c-10-2.002-24.004-17.002-30.996-32.998
				c-10-21.001-22.002-30-45-32.002c-27.002-2.998-30-6.001-27.002-30c0.996-15,7.002-189.009,12.998-386.997
				c5.996-197.998,15-510.996,20.996-695c6.006-183.994,14.004-433.994,17.002-555c7.002-217.998,7.002-220,30-222.998
				c21.006-2.998,22.002-7.998,22.002-77.998v-74.004h65h65v275v275h115h115v-205v-205h25h25v245v245h45c32.998,0,45,4.004,45,15
				c0,11.006,12.002,15,45.996,15c32.002,0,56.006,7.002,82.002,25c31.006,21.006,39.004,22.998,57.002,11.006
				c10.996-7.002,30-19.004,42.998-27.002c12.002-7.998,22.002-19.004,22.002-26.006c0-6.992,10.996-12.998,25-12.998h25v-295
				c0-287.998,0-295,20-295c17.002,0,20,7.002,20,40s2.998,40,20,40c20,0,20,7.002,20,385v385h50c42.002,0,50,2.998,50,19.004
				c0,20.996,19.004,30.996,60,30.996s60-10,60-30.996c0-16.006,7.998-19.004,50-19.004h50v-200v-200h25h25v-165
				c0-157.998,0.996-165,20-165c20,0,20,7.002,20,362.998v364.004l24.004,10.996c12.998,6.006,40,14.004,60,17.002
				c20,4.004,35.996,11.006,35.996,16.006s15.996,8.994,35,8.994s35-3.994,35-10c0-5,5.996-10,14.004-10
				c6.992,0,36.992-7.002,65-17.002c41.992-12.998,50.996-20,50.996-40s5-22.998,40-22.998h40v-425v-425h45h45v510v510h365h364.999
				v-250c0-160,4.004-250,10-250s10,22.998,10,50v50h40h40v-50c0-47.002,2.002-50,25-50c24.004,0,25,2.002,25,75s0.996,75,25,75
				s25,2.002,25,75v75h67.998c60,0,74.004-3.994,125-35.996c54.004-32.998,57.002-37.998,57.002-75c0-27.998,4.004-39.004,15-39.004
				c12.998,0,15,27.002,15,180v180h135h135v-105v-105h30c20,0,30,5,30,15c0,7.998,9.004,15,20,15c11.006,0,20-7.002,20-15
				s5-15,10-15c6.006,0,10-10.996,10-25c0-20.996,5-25,30-25c29.004,0,30-0.996,30-50c0-27.002,5-50,10-50c6.006,0,10-115,10-325
				v-325h40h40v320v430h85h85v-30c0-28.994,2.002-30,45-30h45v55v55h45h45v70v70h40h40v50v50h120h120v-50c0-48.994,1.006-50,30-50
				h30v340v290h75h75v160c0,100,4.004,160,10,160c6.006,0,10-36.997,10-90c0-72.998,2.998-90,15-90s15-13.994,15-70
				c0-67.998,1.006-70,25-70h25v110c0,66.992,4.004,110,10,110c6.006,0,10-27.998,10-65c0-37.001,4.004-65,10-65
				c6.006,0,10-20,10-45c0-37.998,2.998-45,20-45c16.006,0,20,7.002,20,35c0,19.004,5,35,10,35c6.006,0,10-15.996,10-35
				c0-30.996,2.998-35,25-35h25v-255c0-502.998,2.998-765,10-765c6.006,0,10,25,10,55v55h40c37.998,0,40,2.002,40,30
				c0,26.006,5,31.006,29.004,36.006c15.996,3.994,42.002,18.994,57.002,35c25,25.996,33.994,28.994,95.996,28.994
				c54.004,0,67.998,2.998,67.998,15c0,12.998,21.006,15,125,15h125v-55c0-47.998,2.002-55,20-55c20,0,20-7.002,20-325v-215h45h45
				v535v355h160h160v-50c0-45,2.002-50,27.002-55.996c17.998-5,30-2.002,37.998,10c12.998,17.998,35,22.002,35,5.996
				c0-5,11.006-10,25-10c16.006,0,25,6.006,25,15c0,7.998,9.004,15,20,15c11.006,0,20-7.002,20-15c0-12.002,14.004-15,70-15h70v-90
				v-90h75h75v-50c0-47.002,2.002-50,25-50h25v-235c0-503.994,2.002-415,15-415s15-115.996,15,175c0,327.998,0,335,20,335
				c19.004,0,20,7.002,20,165v165h25c24.004,0,25,2.002,25,75c0,72.998,1.006,75,25,75c21.006,0,25,5,25,27.998
				c0,20,14.004,41.006,50,77.002l50,49.004v67.998v67.998h50h50v105c0,62.998-3.994,105-10,105c-5,0-10,17.998-10,40v40h40h40v-40
				c0-22.002-3.994-40-10-40c-5.996,0-10-42.002-10-105v-105h45h45v-67.998v-67.998l50-49.004c36.006-35.996,50-57.002,50-77.002
				c0-22.998,4.004-27.998,25-27.998c24.004,0,25-2.002,25-75c0-72.998,1.006-75,25-75h25v-165c0-157.998,1.006-165,20-165
				c19.004,0,20-7.002,20-265v-105h70h70v-45c0-37.998,2.998-45,20-45c19.004,0,20-7.002,20-240v-240h30h30v425v425h35h35v70v70h125
				h125v-85v-85h100h100v-440v-440l0.107-8.018l38.965,0.078v376.006v375.996l67.998,82.998l67.002,84.004h140l253.33,1.328
				l67.998-84.004l67.002-82.998v-430.996v-241.006l-12.402,6.611l45.732-2.607l-5.732,392.607v580h245h245v-345v-345h35h35
				l2.002,249.004l2.998,247.998l275.742-234.6l229.258-177.402V3039.04"/>
		</g>
	</g>
</g>
</svg>
