<?xml version="1.0" encoding="utf-8"?>
<!-- Generator: Adobe Illustrator 12.0.0, SVG Export Plug-In . SVG Version: 6.00 Build 51448)  -->
<!DOCTYPE svg PUBLIC "-//W3C//DTD SVG 1.1//EN" "http://www.w3.org/Graphics/SVG/1.1/DTD/svg11.dtd" [
	<!ENTITY ns_svg "http://www.w3.org/2000/svg">
	<!ENTITY ns_xlink "http://www.w3.org/1999/xlink">
]>
<svg  version="1.1" id="Layer_1" xmlns="&ns_svg;" xmlns:xlink="&ns_xlink;" width="2578.62" height="894.494"
	 viewBox="214.405 -167.991 2578.62 894.494" overflow="visible" enable-background="new 214.405 -167.991 2578.62 894.494"
	 xml:space="preserve">
<g transform="translate(0.000000,564.000000) scale(0.100000,-0.100000)">
	<g id="XMLID_1_">
		<g>
			<path fill="#7A7A7A" d="M25028.572,613.718h62.383h62.383v155.957v155.957h57.188h57.178v114.375v114.365h119.57h119.57v-124.766
				V904.841h124.775h124.766V488.943V73.054h62.383h62.383v608.242v608.242h301.523h301.523V681.296V73.054h103.975h103.975v1341.26
				V2235.7h135.156h135.176v207.949v207.949h150.762h150.762v-202.754v-202.754h36.387h36.387v-831.777V62.654h25.996h25.996
				v613.447v613.437h285.918h285.938V499.343v-790.195h-12918.7H2123.228V889.246v847.383h83.179h83.179v124.766v124.775h135.166
				h135.161v-119.57v-119.57h135.166h135.166V1112.79V145.837h114.37h114.37v259.932v259.932h140.371h140.361v77.979v77.979h145.557
				h145.566V754.08v-67.588h57.188h57.188v129.971v129.971h228.74h228.74v83.174v83.184h93.574h93.574v-72.783v-72.783h57.188
				h57.188v431.494v431.484h62.383h62.383v176.758v176.748h77.979h77.979v-155.957v-155.957h36.396h36.387v83.184v83.174h176.758
				h176.758v-83.174v-83.184h46.787h46.787v-733.018V405.769h25.986h25.996V993.22v587.451h109.17h108.135l3.125,112.285
				l3.115,111.26h166.357h166.357l3.115-90.469c3.125-89.414,3.125-91.494,28.076-91.494h25.996V858.054V93.845h109.17h109.17
				v135.166v135.166h31.191h31.191v1237.285v467.881h41.592h41.592v46.787v46.787h83.174h83.184v155.967v155.957h93.574
				c86.299,0,93.574-1.035,93.574-20.801c0-18.711,7.285-20.791,62.383-20.791h62.393v-124.766v-124.775h41.582h41.592V1331.13
				V977.624h88.379h87.334l3.125,75.898l3.115,74.863l101.895,3.115l100.859,3.115v35.352v36.396h176.748h176.758V696.892V187.419
				h93.574h93.574v566.66v565.615l112.295,3.125l111.25,3.115l3.115,96.689l3.125,95.654h154.922h155.957v-83.174v-83.184h46.787
				h46.787V722.888V93.845h83.184h83.174V982.82v888.975h98.779h98.77v135.166v135.166h166.357h165.321l3.115-121.66l3.125-122.676
				l29.111-3.125l28.066-3.115v-467.881V956.824h67.588h67.578v192.353v192.354h72.783h71.738l3.125,127.881l3.115,126.855h83.184
				h83.174l3.115-111.26l3.125-112.285h144.521h145.566v-275.527V821.658h31.191h31.191v696.621v218.35l304.639-2.08l303.604-3.125
				l3.115-527.139l2.09-1006.465h103.965h103.975v233.945v233.936h62.393h62.383v155.957v155.967h57.178h57.188v114.365v114.375
				h119.57h119.57v-124.766V956.824h124.766h124.775V540.935V125.037h62.383h62.383v608.252v608.242h301.523h301.523V733.289
				V125.037h103.965h103.975v1341.26v675.83h135.166h135.166v207.949v207.949h150.762h150.762v-202.754v-202.754h36.396h36.387
				v-686.221V114.646h25.996h25.996v613.437v613.447h332.715h332.715V764.48v-577.06h98.77h97.734l3.125,95.664l3.115,96.689
				h176.758h176.748l3.125-43.672l3.115-44.707h128.926h128.926l3.125-116.445l3.115-117.49l55.107-3.115l54.063-3.125v652.959
				v652.949l95.664,95.654l96.689,96.699h168.438h169.473V998.415V447.361h72.783h72.783v-98.779v-98.77h384.707h384.697v-77.988
				c0-75.898,1.035-77.979,25.996-77.979h25.986v961.758v961.758h83.183h83.184v124.766v124.766h135.156h135.166v-119.57v-119.57
				h135.166h135.166v-966.953V93.845h114.375h114.365v259.932v259.941h140.371h140.361v77.979v77.979h145.557h145.566v-67.588
				v-67.578h57.188h57.188V764.48v129.961h228.74h228.74v83.184v83.174h93.574h93.574v-72.783v-72.773h57.188h57.188v431.484
				v431.494h62.383h62.383v176.758v176.748h77.979h77.979v-155.957v-155.967h36.396h36.387v83.184v83.184h176.758h176.758v-83.184
				v-83.184h46.787h46.787v-733.008V353.777h25.996h25.986v587.451v587.451h109.18h108.135l3.115,112.295l3.115,111.25h166.357
				h166.357l3.115-90.459c3.125-89.414,3.125-91.494,28.076-91.494h25.996V806.062V41.863h109.17h109.17v135.166v135.166h31.191
				h31.201V1549.48v717.412h41.582h41.592v46.787v46.787h83.174h83.184v155.957v155.967h93.574c86.299,0,93.574-1.045,93.574-20.791
				c0-18.721,7.285-20.801,62.383-20.801h62.383v-124.766v-124.766h41.592h41.592v-987.754V925.632h88.379h87.344l3.115,74.863
				l3.115,75.898l101.895,3.115l100.859,3.125v35.352v36.387h176.748h176.758V644.91V135.437h93.574h93.574v566.65v565.625
				l112.295,3.115l111.25,3.115l3.115,96.699l3.115,95.654h154.932h155.957v-83.174v-83.184h46.787h46.787V670.896V41.863h83.184
				h83.174v888.975v888.965h98.779h98.77v135.176v135.156h166.357h165.322l3.115-121.65l3.125-122.686l29.111-3.115l28.076-3.115
				v-467.881V904.841h67.578h67.578v192.353v192.344h72.783h71.748l3.115,127.891l3.115,126.846h83.184h83.184l3.115-111.25
				l3.115-112.295h144.531h145.557v-275.527V769.675h31.191h31.191v696.621v696.621l304.639-2.08l303.613-3.115l3.105-1005.43
				l2.09-1006.455h103.975h103.975v233.936V613.718z"/>
		</g>
	</g>
</g>
</svg>
