<?xml version="1.0" encoding="utf-8"?>
<!-- Generator: Adobe Illustrator 12.0.0, SVG Export Plug-In . SVG Version: 6.00 Build 51448)  -->
<!DOCTYPE svg PUBLIC "-//W3C//DTD SVG 1.1//EN" "http://www.w3.org/Graphics/SVG/1.1/DTD/svg11.dtd" [
	<!ENTITY ns_svg "http://www.w3.org/2000/svg">
	<!ENTITY ns_xlink "http://www.w3.org/1999/xlink">
]>
<svg  version="1.1" id="Layer_1" xmlns="&ns_svg;" xmlns:xlink="&ns_xlink;" width="8106.531" height="488"
	 viewBox="-0.053 -304.238 8106.531 488" overflow="visible" enable-background="new -0.053 -304.238 8106.531 488"
	 xml:space="preserve">
<g id="XMLID_63_">
	<g>
		<path fill="#00A2FC" d="M4048.752,184.502c0-0.88,0-1.76,0-2.641h17.53c0,0.881,0,1.761,0,2.641H4048.752z"/>
		<path fill="#44C7F5" d="M4048.752,184.762c0,0.02,0,0.05,0,0.07c-668.94,0-1337.89,0-2006.83,0c0-0.021,0-0.051,0-0.07H4048.752z"
			/>
		<path fill="#00A2FC" d="M6073.113,184.732h-2006.83c0-0.04,0-0.069,0-0.109s0-0.08,0-0.12c0-0.88,0-1.76,0-2.641h2006.83
			c0,0.92,0,1.841,0,2.761C6073.113,184.662,6073.113,184.692,6073.113,184.732z"/>
		<path fill="#00A2FC" d="M4048.752,184.732c0,0.011,0,0.021,0,0.03h-2006.83c0-0.08,0-0.16,0-0.24c0-0.93,0-1.84,0-2.76h2006.83
			c0,0.03,0,0.07,0,0.1c0,0.881,0,1.761,0,2.641c0,0.04,0,0.08,0,0.12S4048.752,184.692,4048.752,184.732z"/>
		<path fill="#FFFFFF" d="M4048.752,184.852c-667.88,0.771-1338.95,0.771-2006.83,0c0-0.01,0-0.01,0-0.02
			c668.94,0,1337.89,0,2006.83,0C4048.752,184.842,4048.752,184.842,4048.752,184.852z"/>
		<path fill="#00A2FC" d="M6073.113,181.862c0-15.33,0-30.67,0-46h17.819c-0.12,15.061-0.239,30.08-0.26,46H6073.113z"/>
		<path fill="#00A2FC" d="M4066.953,135.732c0.29-14.87,0.58-29.779,0.58-45.55c-0.4,0.11-0.801,0.22-1.2,0.33
			c10.45-3.77,21.56-5.35,32.82-5.39c18.359-0.061,36.359,5.85,54.239,11.04c18.66,5.409,37.141,6.92,55.681,0.96
			c17.05-5.48,34.13-12.891,53.279-12c12.471,0.58,23.71,6.069,35.04,10.08c22.79,8.06,49.721,14.359,77.28,7.199
			c12.03-3.12,23.79-7.68,36.96-8.64c26.68-1.94,52.85,5.76,75.36,10.08c8.35,1.6,17.68,3.87,25.439,3.36
			c11.601-0.761,22.141-6.54,32.16-10.561c10.25-4.11,21.62-8.05,34.55-8.16c24.521-0.21,45.21,12.11,66.73,16.8
			c7.68,1.671,15.87,3.7,24,3.841c15.09,0.25,30.02-2.94,44.16-7.2c13.41-4.03,25.66-10.91,38.88-12.96
			c42.45-6.57,76.76,18.12,119.04,18.24c18.13,0.05,36.84-4.101,50.88-10.561c16.04-7.38,31.36-15.02,47.04-14.399
			c14.05,0.56,23.49,8.029,36,11.52c12.35,3.44,26.39,5.65,41.76,4.32c5.5-0.471,10.97-2.601,16.32-4.32
			c16.16-5.19,34.729-9.29,53.76-7.68c23.23,1.97,45.95,13.77,68.16,15.359c32.55,2.33,50.8-14.92,80.16-15.84
			c12.6-0.39,20.18,2.38,29.27,5.76c19.391,7.19,38.36,15.341,63.84,14.881c21.891-0.4,43-11.521,65.771-12.48
			c25.14-1.06,50.06,5.73,72,10.08c8.2,1.63,16.96,4.36,24,3.84c10.979-0.81,22.12-6.74,32.63-11.04
			c11.2-4.57,23.17-7.72,35.53-7.68c16.76,0.05,29.6,5.95,44.159,10.56c14.431,4.57,29.061,9.221,45.12,9.601
			c14.99,0.35,29.36-2.71,42.721-6.24c12.659-3.351,24.63-10.351,37.439-12.96c42.11-8.57,75.5,14.859,118.08,17.28
			c19.55,1.109,38.79-3.341,54.72-10.08c16.29-6.891,32.591-16.04,50.4-14.4c14.73,1.35,25.53,9.94,38.4,12.96
			c10.6,2.48,23.33,4.29,36.47,2.88c12.36-1.319,21.87-4.39,31.92-7.25c-5.34,2.101-10.49,4.79-15.39,8.181
			c0,12.119,0,24.25,0,36.369c0,15.33,0,30.67,0,46h-2006.83C4066.323,165.942,4066.642,150.852,4066.953,135.732z"/>
		<path fill="#00A2FC" d="M6090.932,135.862c0.13-14.77,0.24-29.569,0.24-45.3c-0.9,0.25-1.79,0.5-2.67,0.75
			c11.09-4.38,22.96-6.18,35.01-6.22c18.36-0.061,36.36,5.85,54.24,11.04c18.66,5.41,37.14,6.92,55.68,0.96
			c17.05-5.48,34.13-12.89,53.28-12c12.47,0.58,23.71,6.07,35.04,10.08c22.79,8.06,49.72,14.359,77.28,7.2
			c12.029-3.12,23.79-7.681,36.96-8.641c26.68-1.939,52.85,5.761,75.359,10.08c8.351,1.601,17.681,3.87,25.44,3.36
			c11.6-0.76,22.14-6.54,32.16-10.561c10.25-4.109,21.63-8.05,34.56-8.159c24.51-0.21,45.2,12.109,66.72,16.8
			c7.681,1.67,15.87,3.7,24,3.84c15.091,0.25,30.021-2.94,44.16-7.2c13.41-4.03,25.66-10.91,38.88-12.96
			c42.45-6.57,76.761,18.12,119.04,18.24c18.131,0.05,36.841-4.101,50.881-10.561c16.039-7.38,31.359-15.02,47.039-14.399
			c14.051,0.56,23.49,8.03,36,11.52c12.351,3.44,26.391,5.65,41.761,4.32c5.5-0.47,10.97-2.6,16.319-4.32
			c16.16-5.189,34.73-9.29,53.761-7.68c23.229,1.97,45.949,13.77,68.159,15.36c32.551,2.33,50.801-14.92,80.16-15.841
			c12.601-0.39,20.19,2.381,29.28,5.761c19.38,7.189,38.36,15.34,63.84,14.88c21.88-0.4,43-11.521,65.76-12.48
			c25.15-1.06,50.07,5.73,72,10.08c8.2,1.63,16.96,4.36,24,3.84c10.99-0.81,22.12-6.739,32.641-11.04
			c11.189-4.569,23.17-7.72,35.52-7.68c16.761,0.05,29.601,5.95,44.16,10.561c14.43,4.569,29.07,9.22,45.12,9.6
			c14.99,0.35,29.36-2.71,42.72-6.24c12.66-3.35,24.63-10.35,37.44-12.96c42.109-8.57,75.5,14.86,118.08,17.28
			c19.55,1.109,38.79-3.34,54.72-10.08c16.29-6.89,32.59-16.04,50.4-14.4c14.729,1.36,25.529,9.94,38.399,12.96
			c10.601,2.48,23.33,4.29,36.48,2.88c13.439-1.439,23.02-8.949,34.08-12c0,32.801,0,65.601,0,98.4c-674.79,0-1349.57,0-2024.36,0
			c0-0.02,0-0.05,0-0.07c0-0.08,0-0.159,0-0.239c0-0.931,0-1.841,0-2.761C6090.693,165.942,6090.812,150.922,6090.932,135.862z"/>
		<path fill="#FFFFFF" d="M6090.672,184.932c674.79,0,1349.57,0,2024.36,0c-673.67,0.79-1350.641,0.8-2024.36,0.021
			C6090.672,184.942,6090.672,184.942,6090.672,184.932z"/>
		<path fill="#00A2FC" d="M6091.172,90.562c0,15.73-0.11,30.53-0.24,45.3h-17.819c0-12.119,0-24.25,0-36.369
			c4.899-3.391,10.05-6.08,15.39-8.181C6089.382,91.062,6090.272,90.812,6091.172,90.562z"/>
		<path fill="#00A2FC" d="M6090.672,181.862c0,0.92,0,1.83,0,2.761h-17.56c0-0.92,0-1.841,0-2.761H6090.672z"/>
		<path fill="#44C7F5" d="M6073.113,184.732c0-0.04,0-0.069,0-0.109h17.56c0,0.08,0,0.159,0,0.239h-17.56
			C6073.113,184.822,6073.113,184.772,6073.113,184.732z"/>
		<path fill="#44C7F5" d="M6090.672,184.862c0,0.021,0,0.051,0,0.07c-5.68,0-11.37,0-17.05,0c-0.17,0-0.34,0-0.51,0
			c0-0.02,0-0.05,0-0.07H6090.672z"/>
		<path fill="#FFFFFF" d="M6090.672,184.932c0,0.01,0,0.01,0,0.021c-5.69-0.011-11.37-0.011-17.05-0.021
			C6079.302,184.932,6084.993,184.932,6090.672,184.932z"/>
		<path fill="#44C7F5" d="M6073.113,184.862c0,0.021,0,0.051,0,0.07c0.17,0,0.34,0,0.51,0c5.68,0.01,11.359,0.01,17.05,0.021v0.01
			c-680.64,0-1361.28,0-2041.92,0c0-0.04,0-0.07,0-0.11c5.85-0.01,11.69-0.01,17.53-0.02c0-0.03,0-0.07,0-0.101h2006.83
			C6073.113,184.772,6073.113,184.822,6073.113,184.862z"/>
		<path fill="#FFFFFF" d="M4048.752,184.962c680.64,0,1361.28,0,2041.92,0C5411.153,185.762,4728.272,185.762,4048.752,184.962z"/>
		<path fill="#00A2FC" d="M4066.333,90.512c0.399-0.11,0.8-0.22,1.2-0.33c0,15.771-0.29,30.68-0.58,45.55h-18.2
			c0-12.069,0-24.14,0-36.21C4054.323,95.682,4060.212,92.722,4066.333,90.512z"/>
		<path fill="#00A2FC" d="M4048.752,181.762c0-15.34,0-30.69,0-46.03h18.2c-0.311,15.12-0.63,30.21-0.67,46.13h-17.53
			C4048.752,181.832,4048.752,181.792,4048.752,181.762z"/>
		<path fill="#44C7F5" d="M4066.283,184.502c0,0.04,0,0.08,0,0.12h-17.53c0-0.04,0-0.08,0-0.12H4066.283z"/>
		<path fill="#44C7F5" d="M4066.283,184.622c0,0.04,0,0.069,0,0.109h-17.53c0-0.04,0-0.069,0-0.109H4066.283z"/>
		<path fill="#44C7F5" d="M4048.752,184.762c0-0.01,0-0.02,0-0.03h17.53c0,0.03,0,0.07,0,0.101c-5.84,0-11.69,0-17.53,0
			C4048.752,184.812,4048.752,184.782,4048.752,184.762z"/>
		<path fill="#44C7F5" d="M4066.283,184.832c-5.84,0.01-11.681,0.01-17.53,0.02c0-0.01,0-0.01,0-0.02
			C4054.592,184.832,4060.443,184.832,4066.283,184.832z"/>
		<path fill="#00A2FC" d="M4048.752,135.732c0,15.34,0,30.69,0,46.03h-2006.83c0.02-15.92,0.14-30.94,0.26-46
			c0.12-14.77,0.24-29.57,0.24-45.3c-0.9,0.25-1.79,0.5-2.67,0.75c11.09-4.38,22.96-6.181,35.01-6.22
			c18.36-0.061,36.36,5.85,54.24,11.039c18.66,5.41,37.14,6.921,55.68,0.961c17.05-5.48,34.13-12.891,53.28-12
			c12.47,0.579,23.71,6.069,35.04,10.079c22.79,8.07,49.72,14.36,77.28,7.2c12.03-3.12,23.79-7.68,36.96-8.64
			c26.68-1.94,52.85,5.76,75.36,10.08c8.35,1.6,17.68,3.87,25.44,3.359c11.6-0.76,22.14-6.54,32.16-10.56
			c10.25-4.11,21.63-8.05,34.56-8.16c24.51-0.21,45.2,12.11,66.72,16.8c7.68,1.67,15.87,3.7,24,3.841
			c15.09,0.25,30.02-2.94,44.16-7.2c13.41-4.03,25.66-10.91,38.88-12.96c42.45-6.57,76.76,18.12,119.04,18.239
			c18.13,0.051,36.84-4.1,50.88-10.56c16.04-7.38,31.36-15.02,47.04-14.4c14.05,0.561,23.49,8.03,36,11.521
			c12.35,3.439,26.39,5.649,41.76,4.32c5.5-0.471,10.97-2.601,16.32-4.32c16.16-5.19,34.73-9.29,53.76-7.68
			c23.23,1.97,45.95,13.77,68.16,15.359c32.55,2.33,50.8-14.92,80.16-15.84c12.6-0.39,20.19,2.38,29.28,5.76
			c19.38,7.19,38.36,15.34,63.84,14.88c21.88-0.399,43-11.52,65.76-12.479c25.15-1.061,50.07,5.729,72,10.08
			c8.2,1.63,16.96,4.359,24,3.84c10.99-0.81,22.12-6.74,32.64-11.04c11.19-4.57,23.17-7.72,35.52-7.68
			c16.76,0.05,29.6,5.949,44.16,10.56c14.43,4.57,29.07,9.22,45.12,9.61c14.99,0.35,29.36-2.721,42.72-6.24
			c12.66-3.35,24.63-10.35,37.44-12.96c42.11-8.57,75.5,14.86,118.08,17.28c19.55,1.109,38.79-3.351,54.72-10.08
			c16.29-6.891,32.59-16.04,50.4-14.4c14.72,1.351,25.53,9.94,38.4,12.96c10.6,2.48,23.32,4.29,36.48,2.88
			c12.95-1.399,23.479-4.939,34.13-7.93c-6.12,2.21-12.01,5.17-17.58,9.01C4048.752,111.592,4048.752,123.662,4048.752,135.732z"/>
		<path fill="#00A2FC" d="M2042.422,90.462c0,15.729-0.12,30.53-0.24,45.3h-17.82c0-12.12,0-24.25,0-36.37
			c4.91-3.39,10.06-6.08,15.39-8.18C2040.632,90.962,2041.522,90.712,2042.422,90.462z"/>
		<path fill="#00A2FC" d="M2042.183,135.762c-0.12,15.06-0.24,30.08-0.26,46h-17.56c0-15.33,0-30.67,0-46H2042.183z"/>
		<path fill="#00A2FC" d="M2041.922,181.762c0,0.92,0,1.83,0,2.76h-17.56c0-0.92,0-1.84,0-2.76H2041.922z"/>
		<path fill="#44C7F5" d="M2041.922,184.522c0,0.08,0,0.16,0,0.24h-17.56c0-0.08,0-0.16,0-0.24H2041.922z"/>
		<path fill="#44C7F5" d="M2041.922,184.762c0,0.02,0,0.05,0,0.07c-5.69,0-11.37,0-17.06,0c-0.17,0-0.33,0-0.5,0
			c0-0.021,0-0.051,0-0.07H2041.922z"/>
		<path fill="#FFFFFF" d="M2041.922,184.832c0,0.01,0,0.01,0,0.02c-5.69-0.01-11.38-0.01-17.06-0.02
			C2030.552,184.832,2036.232,184.832,2041.922,184.832z"/>
		<path fill="#00A2FC" d="M0.002,184.522c0-0.92,0-1.84,0-2.76h2024.36c0,0.92,0,1.84,0,2.76c0,0.08,0,0.16,0,0.24
			c0,0.02,0,0.05,0,0.07c0.17,0,0.33,0,0.5,0c5.68,0.01,11.37,0.01,17.06,0.02v0.01c-680.64,0-1361.28,0-2041.92,0
			C0.002,184.752,0.002,184.632,0.002,184.522z"/>
		<path fill="#FFFFFF" d="M0.002,184.862c680.64,0,1361.28,0,2041.92,0C1362.393,185.662,679.522,185.662,0.002,184.862z"/>
		<path fill="#00A2FC" d="M2024.362,135.762c0,15.33,0,30.67,0,46H0.002c0-27.45,0-54.89,0-82.34
			c15.09-10.41,32.54-14.34,50.39-14.4c18.36-0.06,36.36,5.851,54.24,11.04c18.66,5.41,37.14,6.92,55.68,0.96
			c17.06-5.479,34.13-12.89,53.28-12c12.47,0.58,23.71,6.07,35.04,10.08c22.79,8.061,49.72,14.36,77.28,7.2
			c12.03-3.12,23.79-7.68,36.96-8.64c26.68-1.94,52.85,5.76,75.36,10.08c8.35,1.6,17.68,3.869,25.44,3.359
			c11.6-0.76,22.14-6.54,32.16-10.56c10.25-4.11,21.63-8.05,34.56-8.16c24.51-0.21,45.2,12.11,66.72,16.8
			c7.68,1.67,15.87,3.7,24,3.84c15.09,0.25,30.02-2.939,44.16-7.2c13.41-4.029,25.66-10.909,38.88-12.96
			c42.45-6.569,76.76,18.12,119.04,18.24c18.13,0.05,36.84-4.1,50.88-10.56c16.04-7.38,31.36-15.021,47.04-14.4
			c14.05,0.561,23.49,8.03,36,11.521c12.35,3.439,26.39,5.649,41.76,4.319c5.5-0.47,10.97-2.6,16.32-4.319
			c16.16-5.19,34.73-9.29,53.76-7.681c23.23,1.971,45.95,13.771,68.16,15.36c32.55,2.33,50.8-14.92,80.16-15.84
			c12.6-0.391,20.19,2.38,29.28,5.76c19.38,7.19,38.36,15.34,63.84,14.88c21.88-0.399,43-11.52,65.76-12.479
			c25.15-1.061,50.07,5.729,72,10.08c8.2,1.63,16.96,4.359,24,3.84c10.99-0.811,22.12-6.74,32.64-11.04
			c11.19-4.57,23.17-7.721,35.53-7.681c16.76,0.051,29.6,5.95,44.15,10.561c14.44,4.57,29.07,9.22,45.12,9.6
			c14.99,0.351,29.36-2.71,42.73-6.24c12.65-3.35,24.63-10.35,37.43-12.96c42.11-8.569,75.5,14.86,118.08,17.28
			c19.55,1.11,38.79-3.34,54.72-10.08c16.29-6.89,32.59-16.04,50.4-14.399c14.73,1.35,25.53,9.939,38.4,12.96
			c10.6,2.479,23.33,4.29,36.48,2.88c12.36-1.32,21.87-4.391,31.92-7.25c-5.33,2.1-10.48,4.79-15.39,8.18
			C2024.362,111.512,2024.362,123.642,2024.362,135.762z"/>
	</g>
	<g>
	</g>
</g>
</svg>
